<svg id="Layer_1" data-name="Layer 1" xmlns="http://www.w3.org/2000/svg" width="126.18" height="55.3" viewBox="0 0 126.18 55.3"><title>Untitled-1</title><path d="M394.66,223.91H395s0,.06.11.11a.53.53,0,0,1,.18.32,4,4,0,0,1-.25.7,6.75,6.75,0,0,0-.28.84,6.51,6.51,0,0,0-.42,1.09c-.1.24-.18.45-.25.64,0,0-.06.1-.1.31a1.84,1.84,0,0,0-.22.56,2.52,2.52,0,0,0-.21.57c-.11.33-.27.76-.45,1.3h0l1-.28a9.66,9.66,0,0,1,1.37-.36,15.31,15.31,0,0,1,1.58-.28,18.26,18.26,0,0,1,2.22-.17h.53a11.7,11.7,0,0,1,2.63.31,7.24,7.24,0,0,1,1.3.43c.19.07.48.2.88.38s.74.4.88.5a7.86,7.86,0,0,1,.67.45,1.79,1.79,0,0,1,.35.25,1.23,1.23,0,0,1,.28.24,4.15,4.15,0,0,1,.42.36,6.47,6.47,0,0,1,.92,1.19,6,6,0,0,1,.42.92l.14.42a5.2,5.2,0,0,1,.18,1.37v.07a7.45,7.45,0,0,1-.21,1.65l-.25.81a3,3,0,0,0-.25.63s-.07.1-.14.28l-.17.39a1.18,1.18,0,0,1-.21.35c-.05.12-.23.42-.53.92l-.56.87a.79.79,0,0,0-.21.32q-.08,0-.36.39a3.64,3.64,0,0,0-.24.35,3.82,3.82,0,0,0-.35.39,3,3,0,0,0-.32.38c-.28.35-1,1.08-2.14,2.18a39,39,0,0,1-3.2,2.78l-.43.32-.38.28-.64.49-1.12.81c-.56.37-.86.56-.88.56a4.22,4.22,0,0,1-.67.46s-.09.08-.28.17c0,0-.3.2-.84.53s-1.36.86-2.39,1.44l-1.06.56-.81.43c-1,.51-2,1-2.91,1.4l-.81.35c-.17.07-.25.13-.25.18-.07.52-.14,1-.21,1.48a8.16,8.16,0,0,0-.14.95,3.7,3.7,0,0,1,.6.14,4,4,0,0,1,.59.14c.24,0,.7.15,1.38.31,0,0,.38.1,1,.28.89.24,1.8.52,2.74.85,0,0,.13.06.38.1l1.73.64c.54.21,1,.42,1.51.63l.28.11c.33.14.64.29.95.45.12,0,.68.3,1.69.81l.38.21a2.92,2.92,0,0,0,.46.25l1.27.7.52.32.64.38c0,.05.09.1.21.14a9.79,9.79,0,0,0,.95.64,7.19,7.19,0,0,0,.8.6c1.13.86,1.94,1.52,2.43,2l1.51,1.41a32.29,32.29,0,0,1,2.22,2.43,4.81,4.81,0,0,1,.52.63c.36.42.57.67.64.74a.28.28,0,0,0,.1.17l.46.6a.74.74,0,0,1,0,.18v.14c0,.19-.15.3-.43.35h0a.46.46,0,0,1-.35-.21c-.66-.89-1.42-1.82-2.29-2.78-.19-.23-.54-.62-1.05-1.16s-1-1-1.44-1.37a5.18,5.18,0,0,0-.6-.56,1.25,1.25,0,0,0-.25-.18c-.75-.65-1.62-1.34-2.6-2l-.56-.38-.18-.15a.46.46,0,0,1-.17-.1,3.65,3.65,0,0,1-.5-.32c-1.07-.68-1.64-1-1.68-1a7,7,0,0,0-.81-.45s-.1-.07-.28-.14c0,0-.09-.08-.25-.15,0,0-.07-.05-.21-.1s0-.05-.14-.07a1.21,1.21,0,0,0-.35-.18s-.1-.07-.28-.14a1.07,1.07,0,0,0-.36-.17s-.09-.06-.28-.11c0,0-.08-.07-.24-.14l-.67-.32a9.31,9.31,0,0,1-.88-.35l-.56-.21a.79.79,0,0,0-.39-.17c-.35-.14-.68-.26-1-.36l-1-.38c-.78-.26-1.88-.59-3.31-1-1.24-.32-1.9-.49-2-.49a2.51,2.51,0,0,0-.63-.14,1.09,1.09,0,0,0-.42-.07c-.17,1.2-.27,2.13-.32,2.81,0,0-.07.44-.14,1.16a18,18,0,0,0-.17,2,2.75,2.75,0,0,0-.07.78c-.1,1-.18,2.39-.25,4.07a7.75,7.75,0,0,0,0,1.2.5.5,0,0,1-.24.31l-.18,0a.4.4,0,0,1-.45-.35,0,0,0,0,0,0,0,1.86,1.86,0,0,0,0-.28c0-.28,0-1.29.1-3,0-.47.11-1.2.18-2.18,0-.05.07-.69.14-1.93q.06-.29.21-1.8l.07-.7c0-.09.09-.82.28-2.18,0-.07-.11-.12-.32-.14-.89-.19-1.85-.36-2.88-.53a3.81,3.81,0,0,0-.77-.17l-1.41-.29a.61.61,0,0,1-.32-.17.76.76,0,0,1-.1-.21v-.18c0-.09.09-.2.28-.31a4,4,0,0,0,.74-.18,6.18,6.18,0,0,0,1.12-.28c.52-.12,1.09-.28,1.73-.49,1.17-.43,2-.73,2.46-.92,0,0,.07,0,.07-.1.23-1.46.52-3.06.88-4.82l.14-.7.35-1.51c.19-.92.28-1.4.28-1.45s.08-.16.11-.35a3.81,3.81,0,0,0,.17-.77,5.71,5.71,0,0,0,.18-.77,2.94,2.94,0,0,0,.14-.53,3.6,3.6,0,0,0,.14-.63l.21-.71c.19-.79.28-1.2.28-1.23l.35-1.19c.1-.35.19-.71.28-1.06a6.43,6.43,0,0,0,.25-1,1.39,1.39,0,0,0,.14-.45,3.1,3.1,0,0,0,.18-.64,4.09,4.09,0,0,0,.24-.77l.35-1.2.21-.66.25-.81a2.46,2.46,0,0,0,.18-.56s.15-.41.38-1.17a4.4,4.4,0,0,0,.21-.73,2,2,0,0,0,.18-.46v-.07q-.39.18-1,.42a2.36,2.36,0,0,1-.53.28,25.79,25.79,0,0,0-3.27,1.87,20.48,20.48,0,0,0-1.86,1.33c-.63.56-1,.94-1.23,1.13a1.72,1.72,0,0,1-.32.31s-.09.13-.28.32a8.34,8.34,0,0,0-1.26,1.83,4.5,4.5,0,0,0-.64,2.18,3.44,3.44,0,0,0,.85,2.18,4.37,4.37,0,0,0,.91.84c.26.19.39.34.39.46v.1c0,.17-.12.3-.35.39-.05,0-.07,0-.07,0a1.93,1.93,0,0,1-.67-.39,6.87,6.87,0,0,1-1.06-1.09,1.86,1.86,0,0,1-.28-.42,1,1,0,0,1-.21-.35,1.37,1.37,0,0,1-.14-.43,2.69,2.69,0,0,1-.18-.63,2,2,0,0,1-.07-.53v-.42a6.44,6.44,0,0,1,.18-1,2,2,0,0,0,.14-.46,5.55,5.55,0,0,1,.28-.63,3.79,3.79,0,0,1,.35-.67,12.7,12.7,0,0,1,.92-1.26c.26-.31.49-.56.7-.78.35-.37.87-.86,1.55-1.47,0,0,.28-.19.77-.56a9.22,9.22,0,0,0,.77-.57l.36-.21a7.55,7.55,0,0,1,.7-.45,7,7,0,0,1,1-.57s.11-.1.32-.17a2.94,2.94,0,0,1,.6-.32,2.13,2.13,0,0,1,.63-.32s.09-.07.28-.14a2.14,2.14,0,0,1,.35-.17.45.45,0,0,1,.21-.07,4.39,4.39,0,0,1,.74-.35c.1,0,.38-.13.85-.32.28-.8.42-1.22.42-1.27s.16-.37.28-.7l.14-.39a2,2,0,0,0,.14-.49s.07-.1.14-.31a2.2,2.2,0,0,0,.18-.53,5.58,5.58,0,0,0,.31-.81l.5-1.27a2.88,2.88,0,0,1,.17-.52c.12-.33.22-.5.32-.5S394.61,223.94,394.66,223.91Zm-13,34.49,1.83.35c.28.07.71.16,1.3.25,0,0,.09,0,.28,0a4.2,4.2,0,0,0,.07-.5c0-.07.08-.45.18-1.16a.51.51,0,0,0,0-.21l0,0h0a6.78,6.78,0,0,1-.95.38,3,3,0,0,1-.74.25s-.07.05-.21.07a3.5,3.5,0,0,1-.59.21,9.61,9.61,0,0,1-1.09.32Zm4.82-2.7h0l.81-.36.39-.17a.69.69,0,0,1,.35-.14,2.09,2.09,0,0,1,.56-.28,1.52,1.52,0,0,1,.42-.21s.06-.06.18-.11l.46-.21s.07-.06.21-.11,0-.08.14-.1c.58-.31.89-.46.91-.46l.67-.39s.21-.11.56-.28c0,0,0-.08.14-.1a6,6,0,0,1,.6-.35l.6-.39.63-.35a1.86,1.86,0,0,1,.49-.32l.35-.21,1.16-.77c.15-.1.22-.16.22-.18a1.84,1.84,0,0,0,.31-.21q1.09-.74,2.25-1.65a1.79,1.79,0,0,1,.35-.25q.11-.1,1-.84l.46-.39a1.16,1.16,0,0,0,.28-.25l.46-.38c.12-.12.39-.36.81-.74l.31-.32a5.55,5.55,0,0,0,.81-.8,14.07,14.07,0,0,0,1.16-1.27,2.08,2.08,0,0,1,.28-.32c0-.07.16-.2.32-.38l.49-.64a1.39,1.39,0,0,0,.21-.31,12.34,12.34,0,0,0,1.44-2.5,7,7,0,0,0,.67-2.67v-.39a4.3,4.3,0,0,0-.49-1.86l-.32-.56a8.5,8.5,0,0,0-.77-.88c-.19-.14-.28-.22-.28-.25a1.38,1.38,0,0,1-.39-.28l-.21-.14-.53-.35c-.51-.28-1-.53-1.51-.74-.21-.09-.68-.25-1.4-.46a13.43,13.43,0,0,0-2.57-.28,17.61,17.61,0,0,0-2.18.18l-.46.07a16.28,16.28,0,0,0-1.83.38l-1.23.32-.28.14a5.17,5.17,0,0,0-.81.25,2.44,2.44,0,0,0-.17.52c-.07.17-.15.39-.25.67s-.21.67-.28.88-.15.53-.31,1l-.6,1.86c0,.05-.1.38-.28,1l-.46,1.48-.11.45c0,.05-.15.47-.38,1.27,0,0,0,.19-.11.49a2.18,2.18,0,0,0-.17.56l-.14.57a3.4,3.4,0,0,0-.18.63q-.91,3.48-1.55,6.4-.42,1.89-.42,2.07a3.84,3.84,0,0,0-.14.67,6.12,6.12,0,0,0-.18.95,2.59,2.59,0,0,0-.1.6,7.25,7.25,0,0,0-.18,1,3.72,3.72,0,0,0-.17.91A.53.53,0,0,0,386.47,255.7Z" transform="translate(-379.12 -223.91)"/><path d="M404.33,251.44a4,4,0,0,1,.35,1.06c.21.93.36,1.71.45,2.32s.17,1.3.22,1.93h0l.39-.42c.82-.8,1.59-1.49,2.32-2.08q.5-.45.63-.45h.14c.12,0,.22.08.32.24a1.5,1.5,0,0,1,0,.18v0a.57.57,0,0,1-.31.43c-.57.47-1.15,1-1.76,1.51-.73.7-1.29,1.28-1.69,1.72v0c0,.42,0,.92,0,1.51v1.19a39.38,39.38,0,0,1-.28,4.15s0,.14-.08.42a2,2,0,0,0-.07.42c0,.07-.07.32-.14.74-.11.61-.25,1.26-.42,1.94a1.4,1.4,0,0,0-.1.35,1.45,1.45,0,0,0-.14.42c-.26.84-.51,1.56-.74,2.14a44.07,44.07,0,0,1-2.22,4.57,19.7,19.7,0,0,1-1.3,1.9,6.37,6.37,0,0,1-.81.88,2.4,2.4,0,0,1-1.33.63h-.11a1.14,1.14,0,0,1-.46-.14,1,1,0,0,1-.45-.45,2.08,2.08,0,0,1-.28-.6,5.07,5.07,0,0,1-.28-1.51v-.67c0-.66.09-1.15.14-1.48.09-.7.2-1.3.31-1.79a26.35,26.35,0,0,1,.95-3.34c.28-.8.62-1.65,1-2.57.49-1.07,1.09-2.23,1.79-3.48.54-.91,1.09-1.75,1.66-2.53a28.84,28.84,0,0,1,2.35-2.95s.05,0,.07-.11c-.12-1.5-.26-2.69-.42-3.58l-.14-.6h0a6.61,6.61,0,0,1-.28.84c-.09.26-.27.66-.52,1.2-.64,1.26-1.28,1.9-1.94,1.9s-1-.51-1.12-1.51a7.84,7.84,0,0,1-.14-1.66v-.07c0-.58,0-1.2.07-1.86a.41.41,0,0,1,.21-.25.1.1,0,0,0,.1-.07h.18a.58.58,0,0,1,.25.14.45.45,0,0,1,.1.25l-.07,1.72v.32a7.31,7.31,0,0,0,.21,1.76s.07.09.14.28.08.07.11.07c.19,0,.44-.28.77-.77.19-.31.32-.53.39-.67l.07-.18a9.92,9.92,0,0,0,.74-2,8.63,8.63,0,0,0,.28-1.23c0-.07.1-.11.31-.11A1.43,1.43,0,0,1,404.33,251.44Zm-7.18,24.65a8.83,8.83,0,0,0,.11,1.37,4.83,4.83,0,0,1,.18.52.57.57,0,0,0,.49.32c.37,0,.91-.47,1.61-1.41a13.39,13.39,0,0,0,1-1.54,29.36,29.36,0,0,0,1.76-3.55c.17-.35.33-.74.49-1.16a26.56,26.56,0,0,0,1.06-3.34c.16-.75.32-1.6.46-2.53q.14-.86.24-2.43c.05-1,.07-1.73.07-2.11v-1.34h0c-.17.17-.6.71-1.3,1.62s-1.29,1.82-1.83,2.71a28.57,28.57,0,0,0-1.58,2.95,23.48,23.48,0,0,0-1.09,2.53,19.24,19.24,0,0,0-.81,2.39A18.94,18.94,0,0,0,397.15,276.09Z" transform="translate(-379.12 -223.91)"/><path d="M411.39,251.41h.25a1.13,1.13,0,0,1,.56.21,1.36,1.36,0,0,1,.39.63,3.9,3.9,0,0,1,.07.63v.5c-.07.21-.19.31-.35.31h0a.41.41,0,0,1-.42-.31V253a1,1,0,0,0-.21-.7c-.05,0-.08-.07-.11-.07-.44.05-1.1.56-2,1.55a1.4,1.4,0,0,1-.28.31,17.21,17.21,0,0,0-1,1.55,7.81,7.81,0,0,0-.56,1.41,4,4,0,0,0-.11.56c.05.4.16.62.35.67h.07a2.86,2.86,0,0,0,.88-.92c.49-.72.95-1.45,1.37-2.18.28-.51.45-.79.49-.84s.12-.09.36-.14.23.09.35.28a.48.48,0,0,1,0,.18,8.18,8.18,0,0,0-.14,1.4c0,1.13.44,1.69,1.3,1.69a5.91,5.91,0,0,0,3.2-1.37,10.66,10.66,0,0,0,1.62-1.44,8.46,8.46,0,0,0,.6-.67.53.53,0,0,1,.31-.14q.36.07.36.24s.07.07.07.22-.22.41-.64.8a.9.9,0,0,1-.17.25,15.27,15.27,0,0,1-1.27,1.13,8.44,8.44,0,0,1-1.72,1.12s-.2.15-.6.32a4.47,4.47,0,0,1-1.69.42h-.14a2,2,0,0,1-1.33-.49,2,2,0,0,1-.53-.78,2.4,2.4,0,0,1-.21-.81v-.07h0a10.69,10.69,0,0,1-1.09,1.55,3.62,3.62,0,0,1-1,.88,1,1,0,0,1-.53.21c-.35,0-.65-.23-.91-.7a1.31,1.31,0,0,1-.14-.56s0,0,0-.11v-.21s.05-.29.14-.81c0-.07.07-.23.14-.49a13.13,13.13,0,0,1,.88-1.76,13.86,13.86,0,0,1,1.34-1.72,6.27,6.27,0,0,1,1.16-1A2.35,2.35,0,0,1,411.39,251.41Z" transform="translate(-379.12 -223.91)"/><path d="M419.2,249.61a.47.47,0,0,1,.42.35v0a46.2,46.2,0,0,0-.49,5.1c-.14,1.66-.21,3-.21,4.15,0,.18-.05.43-.07.73l0,0q.18-.84.42-1.65l.25-.71.21-.59.14-.46a14.38,14.38,0,0,1,1.48-3.13,2.88,2.88,0,0,1,1.3-1.16,1.07,1.07,0,0,1,.35-.07h.07a1.23,1.23,0,0,1,.84.35,2.94,2.94,0,0,1,.32.6,8.53,8.53,0,0,1,.25,2.46,7.62,7.62,0,0,0,.17,2.32s0,.06.11.11h.1c.31,0,.95-.69,1.94-1.94l1.51-2a.46.46,0,0,1,.21-.07h.1q.39.07.39.42c0,.12-.1.29-.32.53-.53.72-1,1.37-1.47,1.93a12.94,12.94,0,0,1-1.41,1.41,4.23,4.23,0,0,1-.77.45,2.06,2.06,0,0,1-.39.11,1,1,0,0,1-.53-.25,2.18,2.18,0,0,1-.42-1.09c0-.49-.07-1.1-.07-1.82V255a4.19,4.19,0,0,0-.14-1.23,1.09,1.09,0,0,0-.21-.57.42.42,0,0,0-.25-.1h0c-.24,0-.53.21-.88.63a12.75,12.75,0,0,0-1.3,2.71,18.31,18.31,0,0,0-.56,1.76,1.81,1.81,0,0,0-.18.45l-.21.64c-.37,1.17-.74,1.75-1.09,1.75h0c-.22,0-.38-.16-.5-.49a4.8,4.8,0,0,1-.21-1.62q0-2.49.32-6c.14-1.14.27-2.13.39-2.95,0-.19.11-.32.35-.39Z" transform="translate(-379.12 -223.91)"/><path d="M452.17,227A8.39,8.39,0,0,1,457,228.2a4.77,4.77,0,0,1,.74.64,3.68,3.68,0,0,1,.7,1.19,3.09,3.09,0,0,1,.18.67,3.44,3.44,0,0,1,.1.84v.53a9.59,9.59,0,0,1-.21,1.72l-.21.74-.07.28s-.16.48-.49,1.37l-.14.32a.54.54,0,0,1-.39.18h0a.51.51,0,0,1-.43-.29.32.32,0,0,1,0-.14v-.1s.06-.18.17-.46a12.45,12.45,0,0,0,.74-2.46,12.81,12.81,0,0,0,.14-1.3,4.17,4.17,0,0,0-.35-1.72,2.84,2.84,0,0,0-.53-.81q-1.26-1.41-4.71-1.41a22.21,22.21,0,0,0-2.74.18c-1.12.14-2.32.35-3.58.63L445,229a15.33,15.33,0,0,0-2.11.7l-.53.32a3.65,3.65,0,0,0-1,.73A3.91,3.91,0,0,0,440,233.2a5.69,5.69,0,0,0-.07.59v.14c0,.59.1,1,.15,1.34a2.87,2.87,0,0,1,.14.56,20.76,20.76,0,0,0,1,2.67,54,54,0,0,0,3.27,6l1.72,2.74c1.31,2.08,2.53,4.08,3.66,6,.37.71.71,1.34,1,1.9a3.3,3.3,0,0,0,.38.67c1.08-1,2-1.84,2.68-2.42.35-.38.59-.57.74-.57h0a.51.51,0,0,1,.39.28.33.33,0,0,1,.07.21v0c0,.16-.14.34-.42.53a8.38,8.38,0,0,1-.71.63c-1.08,1-1.86,1.71-2.35,2.18v.07c.3.56.65,1.32,1,2.29a30.11,30.11,0,0,1,1.16,3.34,20.22,20.22,0,0,1,.42,2.14c.07.75.11,1.34.11,1.76a11.06,11.06,0,0,1-.46,3.2,11.43,11.43,0,0,1-.95,2.07,10.79,10.79,0,0,1-1.19,1.55,11.37,11.37,0,0,1-1.51,1.37c-.52.4-1,.74-1.45,1a20.6,20.6,0,0,1-2.28,1.16,19.15,19.15,0,0,1-2,.84,29.83,29.83,0,0,1-3.27,1c-.47.14-.94.25-1.41.35a5.78,5.78,0,0,1-1.19-.21,4.57,4.57,0,0,1-.74-.35,2.58,2.58,0,0,1-1.12-1.41,3,3,0,0,1-.11-.63s0,0,0-.07v-.67c0-.12,0-.31.07-.56,0,0,0-.11.07-.32l.14-.49a2.53,2.53,0,0,0,.14-.42,14.3,14.3,0,0,1,.91-2.08,12,12,0,0,1,.6-1.05,22.62,22.62,0,0,1,1.55-2.39l1.12-1.55c.82-1.06,1.76-2.19,2.81-3.41s2.32-2.59,4-4.33l2.22-2.18q.21-.16.21-.21s-.28-.57-.85-1.58c0,0-.26-.44-.7-1.26l-1.23-2.11-2.53-4.05c-1.17-1.89-2.1-3.43-2.78-4.6a37.13,37.13,0,0,1-2-3.76,18.6,18.6,0,0,1-1-2.46,9.8,9.8,0,0,1-.35-1.48A5,5,0,0,1,439,234v-.63a5.19,5.19,0,0,1,.24-1.37s.05-.06.07-.18a4.8,4.8,0,0,1,2-2.43,7.42,7.42,0,0,1,1.51-.77A11.76,11.76,0,0,1,445,228,32.3,32.3,0,0,1,452.17,227ZM437.65,275.8a1.7,1.7,0,0,0,1.06,1.76,2.92,2.92,0,0,0,1.16.32,1.3,1.3,0,0,1,.32-.07l.49-.14a34.1,34.1,0,0,0,4.6-1.48,22,22,0,0,0,2.89-1.4,12.9,12.9,0,0,0,1.72-1.2c.35-.3.56-.49.63-.56a12.65,12.65,0,0,0,1.16-1.27,9.81,9.81,0,0,0,.88-1.37,9.13,9.13,0,0,0,.95-4.18,13,13,0,0,0-.32-2.75q-.13-.58-.42-1.65c-.23-.79-.61-1.81-1.12-3.06a3.48,3.48,0,0,1-.21-.49s-.07-.08-.15-.24l-.28-.6h0c-.92.89-1.83,1.8-2.74,2.74-1.25,1.27-2.42,2.54-3.52,3.83-.33.38-.83,1-1.51,1.8s-1.38,1.73-2,2.53a26.28,26.28,0,0,0-1.62,2.46c-.37.58-.64,1-.81,1.37-.25.51-.46,1-.63,1.4A6,6,0,0,0,437.65,275.8Z" transform="translate(-379.12 -223.91)"/><path d="M461.1,250.46h.32a1.17,1.17,0,0,1,.7.35,1.56,1.56,0,0,1,.35.91s0,.09,0,.25a4.16,4.16,0,0,1-.21,1.12,5.28,5.28,0,0,1-.49.95,6.81,6.81,0,0,1-1,1.23,9.49,9.49,0,0,1-1.55,1.27c-.37.23-.61.39-.7.46a4.41,4.41,0,0,0,0,.56v.17a8.26,8.26,0,0,0,.07.85s.05.08.07.24c.17.43.39.64.67.64h0a2,2,0,0,0,1-.35,7.86,7.86,0,0,0,1.33-1,21.54,21.54,0,0,0,1.69-1.76l.81-.91c.09-.09.3-.35.63-.77l.21-.11h.11c.21.05.31.12.31.21s.07.06.07.18V255c0,.14-.2.42-.59.84-.05.07-.41.51-1.09,1.3s-1.32,1.36-1.76,1.76-.71.54-.85.63a4.63,4.63,0,0,1-1.09.6,2.34,2.34,0,0,1-.73.18h-.14a1.82,1.82,0,0,1-.6-.18,1.39,1.39,0,0,1-.28-.21,1.74,1.74,0,0,1-.5-.74,3.83,3.83,0,0,1-.24-1.37v-.42A11,11,0,0,1,458,255a12.25,12.25,0,0,1,.91-2.53,6.73,6.73,0,0,1,.95-1.38A2.1,2.1,0,0,1,461.1,250.46Zm-2.39,5.34v0s0,0,0,0l.81-.6.63-.59a5.63,5.63,0,0,0,.88-1.09,3.66,3.66,0,0,0,.56-1.34v-.32c0-.32-.1-.54-.32-.63h-.07a1.3,1.3,0,0,0-.63.32s-.06.07-.17.14-.06.09-.18.21a5.42,5.42,0,0,0-.63,1.05,4.32,4.32,0,0,0-.35.88A12.25,12.25,0,0,0,458.71,255.8Z" transform="translate(-379.12 -223.91)"/><path d="M468.35,251.41h.24a1.09,1.09,0,0,1,.56.21,1.28,1.28,0,0,1,.39.63,3,3,0,0,1,.07.63v.5c-.07.21-.19.31-.35.31h0a.41.41,0,0,1-.42-.31V253a1,1,0,0,0-.21-.7s-.08-.07-.1-.07c-.45.05-1.11.56-2,1.55a1.81,1.81,0,0,1-.28.31,17.51,17.51,0,0,0-1,1.55,7.81,7.81,0,0,0-.56,1.41,4,4,0,0,0-.11.56c.05.4.17.62.36.67H465a3,3,0,0,0,.87-.92c.5-.72.95-1.45,1.38-2.18a8,8,0,0,1,.49-.84c0-.05.12-.09.35-.14s.23.09.35.28a.48.48,0,0,1,0,.18,7.28,7.28,0,0,0-.14,1.4c0,1.13.43,1.69,1.3,1.69a6,6,0,0,0,3.2-1.37,11.22,11.22,0,0,0,1.61-1.44,8.46,8.46,0,0,0,.6-.67.55.55,0,0,1,.32-.14c.23,0,.35.13.35.24s.07.07.07.22-.21.41-.63.8c0,0-.06.11-.18.25a15.27,15.27,0,0,1-1.27,1.13,8.44,8.44,0,0,1-1.72,1.12s-.2.15-.6.32a4.38,4.38,0,0,1-1.68.42h-.14a2,2,0,0,1-1.34-.49,2,2,0,0,1-.53-.78,2.4,2.4,0,0,1-.21-.81v-.07h0a12.51,12.51,0,0,1-1.09,1.55,3.6,3.6,0,0,1-1,.88,1,1,0,0,1-.52.21c-.36,0-.66-.23-.92-.7a1.48,1.48,0,0,1-.14-.56s0,0,0-.11v-.21s0-.29.14-.81c0-.07.07-.23.14-.49a11.12,11.12,0,0,1,.88-1.76,12.8,12.8,0,0,1,1.33-1.72,6.27,6.27,0,0,1,1.16-1A2.4,2.4,0,0,1,468.35,251.41Z" transform="translate(-379.12 -223.91)"/><path d="M476.64,247.36a.42.42,0,0,1,.42.32v.18a52.73,52.73,0,0,1-.87,5.87,51,51,0,0,0-.81,5.9v.07a3.41,3.41,0,0,0,.31-.7c.28-.73.68-1.92,1.2-3.59s.94-2.88,1.26-3.72a9.21,9.21,0,0,1,.5-1.16l.17-.32a2.25,2.25,0,0,1,.56-.67.7.7,0,0,1,.36-.1c.42,0,.71.35.88,1.05a9.18,9.18,0,0,1,.21,1.62c0,.7.09,2,.14,4,0,0,0,.1,0,.31h.07a1.27,1.27,0,0,1,.11-.31c.33-1,.64-1.81.95-2.53l.38-.71c.43-.68.82-1,1.2-1h.14a1,1,0,0,1,.74.46l.1.25a7.69,7.69,0,0,1,.32,2.07,3.25,3.25,0,0,0,.25,1.16.86.86,0,0,0,.42.42h.24l.25,0a.63.63,0,0,1,.32.17,1,1,0,0,1,.07.21v.07a.4.4,0,0,1-.18.32,1.44,1.44,0,0,1-.67.14,1.22,1.22,0,0,1-.63-.17,1.55,1.55,0,0,1-.67-.88,6.14,6.14,0,0,1-.28-1.44c0-.5-.06-.9-.1-1.2a1,1,0,0,0-.22-.67l0,0h0c-.3,0-.78.92-1.44,2.77l-.38,1.09c-.36.87-.67,1.31-.95,1.31h-.14c-.14,0-.29-.12-.43-.36a2.59,2.59,0,0,1-.21-.88c-.09-.89-.14-1.91-.14-3L480,252q0-.52-.21-1.68h0a3.74,3.74,0,0,0-.67,1.4c-.23.59-.69,1.94-1.37,4.05l-.42,1.3c0,.07-.12.35-.28.84l-.46,1.2-.35.8a2.88,2.88,0,0,1-.7,1,.58.58,0,0,1-.32.17,2.1,2.1,0,0,1-.42-.24,2.53,2.53,0,0,1-.18-1.09.52.52,0,0,0,0-.21v-.11a56.45,56.45,0,0,1,1-7.1l.39-2.25c.14-.91.25-1.75.32-2.5A.48.48,0,0,1,476.64,247.36Z" transform="translate(-379.12 -223.91)"/><path d="M487.58,251.86h.21a1.45,1.45,0,0,1,.88.46l.24.28a5.26,5.26,0,0,1,.39,1.09q0,.08,0,.39v.07c-.07.23-.18.35-.35.35h-.17c-.12,0-.23-.11-.32-.32a3.72,3.72,0,0,0-.18-.88c-.18-.37-.35-.56-.49-.56a.22.22,0,0,0-.14,0,.85.85,0,0,0-.39.17,2.17,2.17,0,0,0-.52,1c0,.17-.1.33-.14.49a10.65,10.65,0,0,0-.21,2v.21a4.71,4.71,0,0,0,.1.92c.09.37.24.56.42.56s.68-.27,1.13-.81a4.58,4.58,0,0,0,.53-.95v0a1.51,1.51,0,0,0-.32-.11c-.33-.19-.49-.4-.49-.63v-.14a.63.63,0,0,1,.24-.42.87.87,0,0,1,.5-.21s0,0,.1,0h.11a1.13,1.13,0,0,1,.56.21l.21.35a1.56,1.56,0,0,0,.39-.66.54.54,0,0,1,.28-.25h.17q.36.11.36.39v.1a3.37,3.37,0,0,1-.25.6,2.82,2.82,0,0,1-.46.6,2.49,2.49,0,0,1-.49.24c-.05,0-.08.09-.11.25a6.28,6.28,0,0,1-.59,1.12,5.13,5.13,0,0,1-.74.81,2,2,0,0,1-1.13.46,1.17,1.17,0,0,1-.59-.21,1.39,1.39,0,0,1-.6-.85,4.08,4.08,0,0,1-.18-1.26v-.42a11.42,11.42,0,0,1,.11-1.44,6.49,6.49,0,0,1,.35-1.27,3.23,3.23,0,0,1,.49-.91,1.69,1.69,0,0,1,.74-.57A1,1,0,0,1,487.58,251.86Z" transform="translate(-379.12 -223.91)"/><path d="M491.06,249.61c.18,0,.32.12.42.35v0a46.2,46.2,0,0,0-.49,5.1c-.14,1.66-.21,3-.21,4.15,0,.18,0,.43-.07.73l0,0q.18-.84.42-1.65l.25-.71.21-.59.14-.46a14.38,14.38,0,0,1,1.48-3.13,2.88,2.88,0,0,1,1.3-1.16,1,1,0,0,1,.35-.07H495a1.25,1.25,0,0,1,.84.35,2.94,2.94,0,0,1,.32.6,8.53,8.53,0,0,1,.25,2.46,7.62,7.62,0,0,0,.17,2.32s0,.06.11.11h.1c.31,0,.95-.69,1.94-1.94l1.51-2a.46.46,0,0,1,.21-.07h.1q.39.07.39.42c0,.12-.11.29-.32.53-.54.72-1,1.37-1.47,1.93a12.94,12.94,0,0,1-1.41,1.41,4.23,4.23,0,0,1-.77.45,2.06,2.06,0,0,1-.39.11,1,1,0,0,1-.53-.25,2.18,2.18,0,0,1-.42-1.09c0-.49-.07-1.1-.07-1.82V255a4.19,4.19,0,0,0-.14-1.23,1.09,1.09,0,0,0-.21-.57.42.42,0,0,0-.25-.1h0c-.24,0-.53.21-.88.63a12.75,12.75,0,0,0-1.3,2.71,18.31,18.31,0,0,0-.56,1.76,1.81,1.81,0,0,0-.18.45l-.21.64c-.38,1.17-.74,1.75-1.09,1.75h0c-.21,0-.37-.16-.49-.49a4.8,4.8,0,0,1-.21-1.62q0-2.49.32-6c.14-1.14.27-2.13.38-2.95q0-.28.36-.39Z" transform="translate(-379.12 -223.91)"/><path d="M503.12,249.23h.1c.19,0,.32.13.39.38v.07a.68.68,0,0,1-.18.32,2.73,2.73,0,0,1-.46.18,3.57,3.57,0,0,0-.73.35,2.25,2.25,0,0,0-.88.95,2.9,2.9,0,0,0-.28,1.26v.11a10,10,0,0,0,.45,2.49,1.84,1.84,0,0,1,.14.5s.05.08.07.24h.11c.59-.47,1.19-.92,1.83-1.37l1-.74.17,0h0a.46.46,0,0,1,.38.28v.14c0,.21-.16.41-.49.6s-.55.41-1,.74q-.21.17-.63.45-.63.47-1,.81l-.07.07c.21.66.39,1.23.53,1.72a12.35,12.35,0,0,1,.24,1.3c0,.12.06.43.11.92a4.12,4.12,0,0,1-.25,1.37,3,3,0,0,1-.66,1.16,4.37,4.37,0,0,1-1.09.88,3.12,3.12,0,0,1-.95.39l-.36,0h-.17a2,2,0,0,1-.81-.21,1.92,1.92,0,0,1-.84-1,3,3,0,0,1-.14-.88,4.76,4.76,0,0,1,.14-1l.14-.39a11.08,11.08,0,0,1,2.21-3.62,11.47,11.47,0,0,1,.88-.91s0-.05,0-.08c-.36-1.07-.53-1.64-.53-1.68a4.78,4.78,0,0,1-.14-.64,7.48,7.48,0,0,1-.25-1.54v-.32a4.36,4.36,0,0,1,.18-1l.1-.31a2.21,2.21,0,0,1,.39-.6,2.48,2.48,0,0,1,.77-.71,4.51,4.51,0,0,1,1.3-.59A.36.36,0,0,1,503.12,249.23Zm-4.58,13.5a1.37,1.37,0,0,0,.15.66.85.85,0,0,0,.84.57,1.28,1.28,0,0,0,.7-.18,3.41,3.41,0,0,0,1-.67,2.6,2.6,0,0,0,.74-1.19,4.55,4.55,0,0,1,.07-.56v-.78a14.07,14.07,0,0,0-.29-1.62l-.24-1-.14-.32c-.33.33-.68.72-1.06,1.16a12.06,12.06,0,0,0-1.23,2,6.06,6.06,0,0,0-.42,1.16A2.77,2.77,0,0,0,498.54,262.73Z" transform="translate(-379.12 -223.91)"/></svg>