<svg id="Layer_1" data-name="Layer 1" xmlns="http://www.w3.org/2000/svg" width="49.92" height="55.3" viewBox="0 0 49.92 55.3"><title>signature</title><path d="M394.66,223.91H395s0,.06.11.11a.53.53,0,0,1,.18.32,4,4,0,0,1-.25.7,6.75,6.75,0,0,0-.28.84,6.51,6.51,0,0,0-.42,1.09c-.1.24-.18.45-.25.64,0,0-.06.1-.1.31a1.84,1.84,0,0,0-.22.56,2.52,2.52,0,0,0-.21.57c-.11.33-.27.76-.45,1.3h0l1-.28a9.66,9.66,0,0,1,1.37-.36,15.31,15.31,0,0,1,1.58-.28,18.26,18.26,0,0,1,2.22-.17h.53a11.7,11.7,0,0,1,2.63.31,7.24,7.24,0,0,1,1.3.43c.19.07.48.2.88.38s.74.4.88.5a7.86,7.86,0,0,1,.67.45,1.79,1.79,0,0,1,.35.25,1.23,1.23,0,0,1,.28.24,4.15,4.15,0,0,1,.42.36,6.47,6.47,0,0,1,.92,1.19,6,6,0,0,1,.42.92l.14.42a5.2,5.2,0,0,1,.18,1.37v.07a7.45,7.45,0,0,1-.21,1.65l-.25.81a3,3,0,0,0-.25.63s-.07.1-.14.28l-.17.39a1.18,1.18,0,0,1-.21.35c-.05.12-.23.42-.53.92l-.56.87a.79.79,0,0,0-.21.32q-.08,0-.36.39a3.64,3.64,0,0,0-.24.35,3.82,3.82,0,0,0-.35.39,3,3,0,0,0-.32.38c-.28.35-1,1.08-2.14,2.18a39,39,0,0,1-3.2,2.78l-.43.32-.38.28-.64.49-1.12.81c-.56.37-.86.56-.88.56a4.22,4.22,0,0,1-.67.46s-.09.08-.28.17c0,0-.3.2-.84.53s-1.36.86-2.39,1.44l-1.06.56-.81.43c-1,.51-2,1-2.91,1.4l-.81.35c-.17.07-.25.13-.25.18-.07.52-.14,1-.21,1.48a8.16,8.16,0,0,0-.14.95,3.7,3.7,0,0,1,.6.14,4,4,0,0,1,.59.14c.24,0,.7.15,1.38.31,0,0,.38.1,1,.28.89.24,1.8.52,2.74.85,0,0,.13.06.38.1l1.73.64c.54.21,1,.42,1.51.63l.28.11c.33.14.64.29.95.45.12,0,.68.3,1.69.81l.38.21a2.92,2.92,0,0,0,.46.25l1.27.7.52.32.64.38c0,.05.09.1.21.14a9.79,9.79,0,0,0,.95.64,7.19,7.19,0,0,0,.8.6c1.13.86,1.94,1.52,2.43,2l1.51,1.41a32.29,32.29,0,0,1,2.22,2.43,4.81,4.81,0,0,1,.52.63c.36.42.57.67.64.74a.28.28,0,0,0,.1.17l.46.6a.74.74,0,0,1,0,.18v.14c0,.19-.15.3-.43.35h0a.46.46,0,0,1-.35-.21c-.66-.89-1.42-1.82-2.29-2.78-.19-.23-.54-.62-1.05-1.16s-1-1-1.44-1.37a5.18,5.18,0,0,0-.6-.56,1.25,1.25,0,0,0-.25-.18c-.75-.65-1.62-1.34-2.6-2l-.56-.38-.18-.15a.46.46,0,0,1-.17-.1,3.65,3.65,0,0,1-.5-.32c-1.07-.68-1.64-1-1.68-1a7,7,0,0,0-.81-.45s-.1-.07-.28-.14c0,0-.09-.08-.25-.15,0,0-.07-.05-.21-.1s0-.05-.14-.07a1.21,1.21,0,0,0-.35-.18s-.1-.07-.28-.14a1.07,1.07,0,0,0-.36-.17s-.09-.06-.28-.11c0,0-.08-.07-.24-.14l-.67-.32a9.31,9.31,0,0,1-.88-.35l-.56-.21a.79.79,0,0,0-.39-.17c-.35-.14-.68-.26-1-.36l-1-.38c-.78-.26-1.88-.59-3.31-1-1.24-.32-1.9-.49-2-.49a2.51,2.51,0,0,0-.63-.14,1.09,1.09,0,0,0-.42-.07c-.17,1.2-.27,2.13-.32,2.81,0,0-.07.44-.14,1.16a18,18,0,0,0-.17,2,2.75,2.75,0,0,0-.07.78c-.1,1-.18,2.39-.25,4.07a7.75,7.75,0,0,0,0,1.2.5.5,0,0,1-.24.31l-.18,0a.4.4,0,0,1-.45-.35,0,0,0,0,0,0,0,1.86,1.86,0,0,0,0-.28c0-.28,0-1.29.1-3,0-.47.11-1.2.18-2.18,0-.05.07-.69.14-1.93q.06-.29.21-1.8l.07-.7c0-.09.09-.82.28-2.18,0-.07-.11-.12-.32-.14-.89-.19-1.85-.36-2.88-.53a3.81,3.81,0,0,0-.77-.17l-1.41-.29a.61.61,0,0,1-.32-.17.76.76,0,0,1-.1-.21v-.18c0-.09.09-.2.28-.31a4,4,0,0,0,.74-.18,6.18,6.18,0,0,0,1.12-.28c.52-.12,1.09-.28,1.73-.49,1.17-.43,2-.73,2.46-.92,0,0,.07,0,.07-.1.23-1.46.52-3.06.88-4.82l.14-.7.35-1.51c.19-.92.28-1.4.28-1.45s.08-.16.11-.35a3.81,3.81,0,0,0,.17-.77,5.71,5.71,0,0,0,.18-.77,2.94,2.94,0,0,0,.14-.53,3.6,3.6,0,0,0,.14-.63l.21-.71c.19-.79.28-1.2.28-1.23l.35-1.19c.1-.35.19-.71.28-1.06a6.43,6.43,0,0,0,.25-1,1.39,1.39,0,0,0,.14-.45,3.1,3.1,0,0,0,.18-.64,4.09,4.09,0,0,0,.24-.77l.35-1.2.21-.66.25-.81a2.46,2.46,0,0,0,.18-.56s.15-.41.38-1.17a4.4,4.4,0,0,0,.21-.73,2,2,0,0,0,.18-.46v-.07q-.39.18-1,.42a2.36,2.36,0,0,1-.53.28,25.79,25.79,0,0,0-3.27,1.87,20.48,20.48,0,0,0-1.86,1.33c-.63.56-1,.94-1.23,1.13a1.72,1.72,0,0,1-.32.31s-.09.13-.28.32a8.34,8.34,0,0,0-1.26,1.83,4.5,4.5,0,0,0-.64,2.18,3.44,3.44,0,0,0,.85,2.18,4.37,4.37,0,0,0,.91.84c.26.19.39.34.39.46v.1c0,.17-.12.3-.35.39-.05,0-.07,0-.07,0a1.93,1.93,0,0,1-.67-.39,6.87,6.87,0,0,1-1.06-1.09,1.86,1.86,0,0,1-.28-.42,1,1,0,0,1-.21-.35,1.37,1.37,0,0,1-.14-.43,2.69,2.69,0,0,1-.18-.63,2,2,0,0,1-.07-.53v-.42a6.44,6.44,0,0,1,.18-1,2,2,0,0,0,.14-.46,5.55,5.55,0,0,1,.28-.63,3.79,3.79,0,0,1,.35-.67,12.7,12.7,0,0,1,.92-1.26c.26-.31.49-.56.7-.78.35-.37.87-.86,1.55-1.47,0,0,.28-.19.77-.56a9.22,9.22,0,0,0,.77-.57l.36-.21a7.55,7.55,0,0,1,.7-.45,7,7,0,0,1,1-.57s.11-.1.32-.17a2.94,2.94,0,0,1,.6-.32,2.13,2.13,0,0,1,.63-.32s.09-.07.28-.14a2.14,2.14,0,0,1,.35-.17.45.45,0,0,1,.21-.07,4.39,4.39,0,0,1,.74-.35c.1,0,.38-.13.85-.32.28-.8.42-1.22.42-1.27s.16-.37.28-.7l.14-.39a2,2,0,0,0,.14-.49s.07-.1.14-.31a2.2,2.2,0,0,0,.18-.53,5.58,5.58,0,0,0,.31-.81l.5-1.27a2.88,2.88,0,0,1,.17-.52c.12-.33.22-.5.32-.5S394.61,223.94,394.66,223.91Zm-13,34.49,1.83.35c.28.07.71.16,1.3.25,0,0,.09,0,.28,0a4.2,4.2,0,0,0,.07-.5c0-.07.08-.45.18-1.16a.51.51,0,0,0,0-.21l0,0h0a6.78,6.78,0,0,1-.95.38,3,3,0,0,1-.74.25s-.07.05-.21.07a3.5,3.5,0,0,1-.59.21,9.61,9.61,0,0,1-1.09.32Zm4.82-2.7h0l.81-.36.39-.17a.69.69,0,0,1,.35-.14,2.09,2.09,0,0,1,.56-.28,1.52,1.52,0,0,1,.42-.21s.06-.06.18-.11l.46-.21s.07-.06.21-.11,0-.08.14-.1c.58-.31.89-.46.91-.46l.67-.39s.21-.11.56-.28c0,0,0-.08.14-.1a6,6,0,0,1,.6-.35l.6-.39.63-.35a1.86,1.86,0,0,1,.49-.32l.35-.21,1.16-.77c.15-.1.22-.16.22-.18a1.84,1.84,0,0,0,.31-.21q1.09-.74,2.25-1.65a1.79,1.79,0,0,1,.35-.25q.11-.1,1-.84l.46-.39a1.16,1.16,0,0,0,.28-.25l.46-.38c.12-.12.39-.36.81-.74l.31-.32a5.55,5.55,0,0,0,.81-.8,14.07,14.07,0,0,0,1.16-1.27,2.08,2.08,0,0,1,.28-.32c0-.07.16-.2.32-.38l.49-.64a1.39,1.39,0,0,0,.21-.31,12.34,12.34,0,0,0,1.44-2.5,7,7,0,0,0,.67-2.67v-.39a4.3,4.3,0,0,0-.49-1.86l-.32-.56a8.5,8.5,0,0,0-.77-.88c-.19-.14-.28-.22-.28-.25a1.38,1.38,0,0,1-.39-.28l-.21-.14-.53-.35c-.51-.28-1-.53-1.51-.74-.21-.09-.68-.25-1.4-.46a13.43,13.43,0,0,0-2.57-.28,17.61,17.61,0,0,0-2.18.18l-.46.07a16.28,16.28,0,0,0-1.83.38l-1.23.32-.28.14a5.17,5.17,0,0,0-.81.25,2.44,2.44,0,0,0-.17.52c-.07.17-.15.39-.25.67s-.21.67-.28.88-.15.53-.31,1l-.6,1.86c0,.05-.1.38-.28,1l-.46,1.48-.11.45c0,.05-.15.47-.38,1.27,0,0,0,.19-.11.49a2.18,2.18,0,0,0-.17.56l-.14.57a3.4,3.4,0,0,0-.18.63q-.91,3.48-1.55,6.4-.42,1.89-.42,2.07a3.84,3.84,0,0,0-.14.67,6.12,6.12,0,0,0-.18.95,2.59,2.59,0,0,0-.1.6,7.25,7.25,0,0,0-.18,1,3.72,3.72,0,0,0-.17.91A.53.53,0,0,0,386.47,255.7Z" transform="translate(-379.12 -223.91)"/><path d="M404.33,251.44a4,4,0,0,1,.35,1.06c.21.93.36,1.71.45,2.32s.17,1.3.22,1.93h0l.39-.42c.82-.8,1.59-1.49,2.32-2.08q.5-.45.63-.45h.14c.12,0,.22.08.32.24a1.5,1.5,0,0,1,0,.18v0a.57.57,0,0,1-.31.43c-.57.47-1.15,1-1.76,1.51-.73.7-1.29,1.28-1.69,1.72v0c0,.42,0,.92,0,1.51v1.19a39.38,39.38,0,0,1-.28,4.15s0,.14-.08.42a2,2,0,0,0-.07.42c0,.07-.07.32-.14.74-.11.61-.25,1.26-.42,1.94a1.4,1.4,0,0,0-.1.35,1.45,1.45,0,0,0-.14.42c-.26.84-.51,1.56-.74,2.14a44.07,44.07,0,0,1-2.22,4.57,19.7,19.7,0,0,1-1.3,1.9,6.37,6.37,0,0,1-.81.88,2.4,2.4,0,0,1-1.33.63h-.11a1.14,1.14,0,0,1-.46-.14,1,1,0,0,1-.45-.45,2.08,2.08,0,0,1-.28-.6,5.07,5.07,0,0,1-.28-1.51v-.67c0-.66.09-1.15.14-1.48.09-.7.2-1.3.31-1.79a26.35,26.35,0,0,1,.95-3.34c.28-.8.62-1.65,1-2.57.49-1.07,1.09-2.23,1.79-3.48.54-.91,1.09-1.75,1.66-2.53a28.84,28.84,0,0,1,2.35-2.95s.05,0,.07-.11c-.12-1.5-.26-2.69-.42-3.58l-.14-.6h0a6.61,6.61,0,0,1-.28.84c-.09.26-.27.66-.52,1.2-.64,1.26-1.28,1.9-1.94,1.9s-1-.51-1.12-1.51a7.84,7.84,0,0,1-.14-1.66v-.07c0-.58,0-1.2.07-1.86a.41.41,0,0,1,.21-.25.1.1,0,0,0,.1-.07h.18a.58.58,0,0,1,.25.14.45.45,0,0,1,.1.25l-.07,1.72v.32a7.31,7.31,0,0,0,.21,1.76s.07.09.14.28.08.07.11.07c.19,0,.44-.28.77-.77.19-.31.32-.53.39-.67l.07-.18a9.92,9.92,0,0,0,.74-2,8.63,8.63,0,0,0,.28-1.23c0-.07.1-.11.31-.11A1.43,1.43,0,0,1,404.33,251.44Zm-7.18,24.65a8.83,8.83,0,0,0,.11,1.37,4.83,4.83,0,0,1,.18.52.57.57,0,0,0,.49.32c.37,0,.91-.47,1.61-1.41a13.39,13.39,0,0,0,1-1.54,29.36,29.36,0,0,0,1.76-3.55c.17-.35.33-.74.49-1.16a26.56,26.56,0,0,0,1.06-3.34c.16-.75.32-1.6.46-2.53q.14-.86.24-2.43c.05-1,.07-1.73.07-2.11v-1.34h0c-.17.17-.6.71-1.3,1.62s-1.29,1.82-1.83,2.71a28.57,28.57,0,0,0-1.58,2.95,23.48,23.48,0,0,0-1.09,2.53,19.24,19.24,0,0,0-.81,2.39A18.94,18.94,0,0,0,397.15,276.09Z" transform="translate(-379.12 -223.91)"/><path d="M411.39,251.41h.25a1.13,1.13,0,0,1,.56.21,1.36,1.36,0,0,1,.39.63,3.9,3.9,0,0,1,.07.63v.5c-.07.21-.19.31-.35.31h0a.41.41,0,0,1-.42-.31V253a1,1,0,0,0-.21-.7c-.05,0-.08-.07-.11-.07-.44.05-1.1.56-2,1.55a1.4,1.4,0,0,1-.28.31,17.21,17.21,0,0,0-1,1.55,7.81,7.81,0,0,0-.56,1.41,4,4,0,0,0-.11.56c.05.4.16.62.35.67h.07a2.86,2.86,0,0,0,.88-.92c.49-.72.95-1.45,1.37-2.18.28-.51.45-.79.49-.84s.12-.09.36-.14.23.09.35.28a.48.48,0,0,1,0,.18,8.18,8.18,0,0,0-.14,1.4c0,1.13.44,1.69,1.3,1.69a5.91,5.91,0,0,0,3.2-1.37,10.66,10.66,0,0,0,1.62-1.44,8.46,8.46,0,0,0,.6-.67.53.53,0,0,1,.31-.14q.36.07.36.24s.07.07.07.22-.22.41-.64.8a.9.9,0,0,1-.17.25,15.27,15.27,0,0,1-1.27,1.13,8.44,8.44,0,0,1-1.72,1.12s-.2.15-.6.32a4.47,4.47,0,0,1-1.69.42h-.14a2,2,0,0,1-1.33-.49,2,2,0,0,1-.53-.78,2.4,2.4,0,0,1-.21-.81v-.07h0a10.69,10.69,0,0,1-1.09,1.55,3.62,3.62,0,0,1-1,.88,1,1,0,0,1-.53.21c-.35,0-.65-.23-.91-.7a1.31,1.31,0,0,1-.14-.56s0,0,0-.11v-.21s.05-.29.14-.81c0-.07.07-.23.14-.49a13.13,13.13,0,0,1,.88-1.76,13.86,13.86,0,0,1,1.34-1.72,6.27,6.27,0,0,1,1.16-1A2.35,2.35,0,0,1,411.39,251.41Z" transform="translate(-379.12 -223.91)"/><path d="M419.2,249.61a.47.47,0,0,1,.42.35v0a46.2,46.2,0,0,0-.49,5.1c-.14,1.66-.21,3-.21,4.15,0,.18-.05.43-.07.73l0,0q.18-.84.42-1.65l.25-.71.21-.59.14-.46a14.38,14.38,0,0,1,1.48-3.13,2.88,2.88,0,0,1,1.3-1.16,1.07,1.07,0,0,1,.35-.07h.07a1.23,1.23,0,0,1,.84.35,2.94,2.94,0,0,1,.32.6,8.53,8.53,0,0,1,.25,2.46,7.62,7.62,0,0,0,.17,2.32s0,.06.11.11h.1c.31,0,.95-.69,1.94-1.94l1.51-2a.46.46,0,0,1,.21-.07h.1q.39.07.39.42c0,.12-.1.29-.32.53-.53.72-1,1.37-1.47,1.93a12.94,12.94,0,0,1-1.41,1.41,4.23,4.23,0,0,1-.77.45,2.06,2.06,0,0,1-.39.11,1,1,0,0,1-.53-.25,2.18,2.18,0,0,1-.42-1.09c0-.49-.07-1.1-.07-1.82V255a4.19,4.19,0,0,0-.14-1.23,1.09,1.09,0,0,0-.21-.57.42.42,0,0,0-.25-.1h0c-.24,0-.53.21-.88.63a12.75,12.75,0,0,0-1.3,2.71,18.31,18.31,0,0,0-.56,1.76,1.81,1.81,0,0,0-.18.45l-.21.64c-.37,1.17-.74,1.75-1.09,1.75h0c-.22,0-.38-.16-.5-.49a4.8,4.8,0,0,1-.21-1.62q0-2.49.32-6c.14-1.14.27-2.13.39-2.95,0-.19.11-.32.35-.39Z" transform="translate(-379.12 -223.91)"/></svg>